<svg width="324" height="202" viewBox="0 0 324 202" fill="none" xmlns="http://www.w3.org/2000/svg">
<path d="M14.4894 131.936C14.989 131.936 15.4792 131.999 15.8981 132.052C16.3376 132.107 16.7068 132.153 17.0657 132.153H17.1873L17.3047 132.182C21.6709 133.307 24.909 135.5 27.5911 137.332C28.9483 138.259 30.1277 139.07 31.27 139.656C32.4011 140.237 33.4267 140.559 34.4522 140.559C34.7083 140.559 35.0026 140.601 35.2823 140.684C35.5524 140.763 35.8917 140.905 36.1732 141.159C36.4799 141.437 36.7402 141.88 36.6805 142.45C36.627 142.959 36.3343 143.385 35.995 143.726C35.6034 144.119 35.1826 144.408 34.8588 144.635C34.5127 144.879 34.2785 145.05 34.0937 145.254C33.8136 145.564 33.5113 146.094 33.687 147.593C34.6443 151.116 35.8486 155.393 37.0201 159.656L38.1772 163.913L38.1814 163.93C38.8229 166.507 39.4599 169.074 40.0974 171.457C41.6998 164.883 44.2211 155.485 45.7427 149.945C45.9263 149.014 45.9257 148.292 45.7447 147.364L44.4849 143.561L44.4346 143.412V143.05C43.4452 140.941 42.0976 139.422 40.1813 138.267L40.1624 138.254L40.1414 138.241C39.5307 137.832 39.1755 137.088 39.2966 136.357C39.3607 135.972 39.5594 135.597 39.9108 135.328C40.2571 135.063 40.68 134.955 41.1078 134.955H58.2804C59.0161 134.955 59.768 135.339 60.0455 136.105C60.3175 136.856 60.0005 137.583 59.4397 138.079C59.2758 138.301 59.0744 138.446 58.9093 138.538C58.703 138.653 58.4794 138.731 58.3182 138.785C57.9346 138.913 57.7146 138.978 57.5279 139.103L57.4776 139.136L57.4231 139.164C57.3137 139.219 57.2055 139.303 57.1359 139.385C57.1186 139.405 57.1077 139.424 57.1002 139.435V140.616C57.2092 140.847 57.2589 141.074 57.2805 141.248C57.3113 141.495 57.3117 141.78 57.312 142.046C58.2776 145.919 59.8323 151.803 61.5359 158.016L63.2884 164.334C64.1803 167.559 64.9065 170.557 65.7243 173.297C66.6531 169.387 67.8669 163.862 68.898 158.823C69.5008 155.877 70.0421 153.103 70.4325 150.922C70.6278 149.83 70.7843 148.892 70.8916 148.157C71.002 147.401 71.0528 146.92 71.053 146.705C71.053 145.602 71.047 144.862 70.8664 144.136C70.6823 143.397 70.3066 142.633 69.8665 141.749C69.5181 141.049 68.9892 140.506 68.3299 139.844C67.7762 139.287 67.2236 138.913 66.4349 138.517L66.3804 138.49L66.3301 138.456C65.7195 138.047 65.3623 137.305 65.4832 136.574C65.5471 136.189 65.748 135.814 66.0995 135.545C66.4458 135.28 66.8687 135.17 67.2965 135.17H85.4334V135.841C85.7884 136.032 86.0827 136.335 86.2342 136.753C86.5297 137.571 86.1321 138.363 85.4774 138.856C85.3124 138.991 85.1339 139.078 85.0225 139.128C84.8595 139.201 84.6759 139.266 84.5047 139.324C84.3314 139.382 84.1461 139.439 83.9744 139.492C83.8111 139.542 83.6586 139.589 83.5195 139.635C82.641 139.992 82.1743 140.472 81.2597 141.168C77.9619 144.703 75.6943 148.856 74.4531 153.427L74.4468 153.446C73.3858 157.07 69.9623 172.753 68.4536 179.68L68.4473 179.707C68.3075 180.27 68.444 180.855 68.7429 181.305L68.7764 181.356L68.8037 181.41C68.9322 181.668 69.2247 181.976 69.6862 182.44C70.23 182.936 70.7247 183.364 71.0467 183.673C71.2176 183.838 71.3866 184.012 71.5225 184.191C71.656 184.368 71.8038 184.611 71.8642 184.914C72.0101 185.647 71.5621 186.157 71.2668 186.429C70.962 186.71 70.5009 187.026 69.9965 187.381C65.8906 190.48 63.2195 193.97 61.1334 200.674L61.1104 200.747L61.0768 200.817C60.761 201.451 60.1627 202 59.381 202C58.5497 202 57.9946 201.392 57.7941 200.688L57.792 200.691C57.6936 200.394 57.6498 199.925 57.6159 199.505C57.5781 199.036 57.5445 198.442 57.5048 197.804C57.4242 196.509 57.3179 194.984 57.1107 193.631L57.1086 193.615C56.0673 185.876 51.9365 169.828 48.1345 157.218C46.2085 163.968 43.4858 174.174 42.4809 178.817L42.4704 178.867L42.4536 178.918C42.304 179.37 42.3369 179.899 42.5542 180.227L42.5878 180.278L42.615 180.332C42.9612 181.027 43.4857 181.567 44.139 182.223C44.6835 182.719 45.1791 183.146 45.5016 183.457C45.6726 183.621 45.8414 183.795 45.9774 183.975C46.1112 184.151 46.2608 184.395 46.3212 184.699C46.4668 185.432 46.0169 185.94 45.7217 186.212C45.4169 186.493 44.9558 186.811 44.4513 187.166C40.3462 190.265 37.6763 193.754 35.5904 200.457L35.5674 200.533L35.5317 200.602C35.3659 200.935 35.1131 201.271 34.6786 201.446C34.3346 201.584 33.9601 201.568 33.8086 201.568C33.4453 201.568 32.9952 201.477 32.6431 201.124C32.3496 200.829 32.2407 200.465 32.2112 200.141C32.1752 200.019 32.1484 199.904 32.1337 199.825C32.1015 199.652 32.0729 199.441 32.0435 199.21C31.9847 198.748 31.9216 198.147 31.8549 197.49C31.7208 196.17 31.5642 194.591 31.356 193.225L30.8571 190.61C28.0921 176.797 21.34 152.089 18.3151 142.551C17.7618 141.466 17.031 140.718 16.0323 139.915C15.1332 139.193 14.0582 138.835 12.9864 138.835H11.2108C10.939 138.926 10.6672 139.018 10.3954 139.109C10.0734 139.217 9.75096 139.325 9.42901 139.433C8.72572 139.668 8.32617 139.823 8.0895 140.06C7.82965 140.321 7.51469 140.571 7.25728 140.778C6.97858 141.002 6.75573 141.183 6.58647 141.353C6.1634 141.778 5.79803 142.146 5.43143 142.694C5.31441 142.918 5.14884 143.213 5.03524 143.423C4.88227 143.704 4.75235 143.967 4.67258 144.208L4.63275 144.332L4.56148 144.439C4.21642 144.959 4.07934 145.422 4.07934 145.842V147.783C4.07947 148.955 4.27116 149.911 4.65371 150.871C5.04563 151.855 5.6435 152.859 6.24688 153.667C6.78048 154.381 7.51532 154.951 8.54648 155.572C9.41418 156.095 10.266 156.457 11.1018 156.667L11.4603 156.747L11.519 156.76L11.5756 156.778C12.0106 156.924 12.6391 156.941 13.282 156.943C14.0006 156.759 14.5622 156.576 15.1351 156.385C15.7571 155.967 16.2704 155.617 16.5982 155.288L16.6653 155.221L16.745 155.166C17.1841 154.872 17.4955 154.416 17.6527 153.943L17.6611 153.915L17.6715 153.888C17.7636 153.657 17.8352 153.435 17.9105 153.197C17.98 152.979 18.0645 152.709 18.1746 152.469C18.2872 152.224 18.464 151.923 18.7679 151.69C19.0916 151.442 19.4679 151.338 19.8558 151.338H20.0843L20.2877 151.442C20.8119 151.705 21.0734 152.162 21.1849 152.572C21.2904 152.961 21.2789 153.356 21.2457 153.656C21.2112 153.968 21.1439 154.251 21.0885 154.45C21.0602 154.551 21.0331 154.636 21.013 154.696C21.0063 154.716 20.9993 154.734 20.9941 154.749C20.7414 155.732 20.2432 156.741 19.4659 157.522C18.8374 158.153 18.0881 158.917 17.0678 159.429C16.2653 159.832 15.1903 160.393 14.0597 160.393H11.4163L11.3471 160.383C9.76398 160.155 8.10615 159.693 6.65565 158.722C5.32037 157.828 3.94442 156.686 3.00186 155.503C2.11664 154.391 1.17744 152.989 0.693865 151.313C-0.0047124 149.622 1.44711e-08 147.949 8.68832e-07 146.488C3.62901e-05 145.987 0.0629713 145.496 0.115296 145.075C0.170243 144.634 0.215883 144.261 0.215916 143.9V143.783L0.243168 143.667C0.454906 142.816 0.692694 141.853 1.17601 140.881C1.59641 140.037 2.0543 139.113 2.52391 138.406L2.57631 138.326L2.64549 138.256C3.30857 137.59 3.87544 137.015 4.24075 136.465C4.78867 135.639 5.80136 134.9 6.44183 134.471C7.37431 133.778 8.16387 133.49 8.90704 133.117C9.87407 132.632 10.8334 132.393 11.6804 132.18C12.6723 131.931 13.6491 131.936 14.4894 131.936Z" fill="white"/>
<path fill-rule="evenodd" clip-rule="evenodd" d="M119.078 152.216C126.44 150.875 132.132 152.888 136.025 156.797C136.026 156.799 136.033 156.806 136.048 156.818C136.065 156.833 136.089 156.85 136.119 156.873C136.165 156.908 136.27 156.986 136.348 157.048C136.429 157.113 136.554 157.219 136.664 157.355C136.72 157.424 136.796 157.537 136.857 157.684C137.763 158.874 138.24 160.122 138.24 161.793V163.303C138.24 164.007 137.895 164.656 137.708 165.031C137.415 165.619 137.092 165.936 136.668 166.362C136.477 166.554 135.937 167.106 135.343 167.404C135.178 167.487 135.099 167.563 134.78 167.764C134.592 167.882 134.268 168.072 133.87 168.132C133.262 168.381 132.659 168.37 132.121 168.37H130.618C129.917 168.37 129.272 168.023 128.899 167.835C128.592 167.681 128.304 167.462 128.107 167.313C127.876 167.139 127.734 167.036 127.612 166.974C126.996 166.665 126.413 166.081 126.105 165.463C126.022 165.296 125.949 165.218 125.749 164.896C125.64 164.721 125.467 164.426 125.395 164.063C125.2 163.73 125.075 163.418 125.007 163.109C124.927 162.75 124.931 162.434 124.931 162.225V160.56L124.979 160.41C125.038 160.234 125.097 160.073 125.147 159.934C125.199 159.792 125.24 159.679 125.275 159.574C125.345 159.363 125.361 159.266 125.361 159.208C125.361 158.429 125.753 157.764 126.288 157.227C126.468 157.046 126.562 156.911 126.774 156.663C126.884 156.534 127.025 156.383 127.202 156.24C127.146 156.169 127.032 156.053 126.81 155.924C126.547 155.772 126.223 155.646 125.91 155.557C125.586 155.466 125.344 155.435 125.252 155.435H125.193L125.132 155.427C123.545 155.228 121.538 155.387 119.921 156.151C118.355 156.892 117.166 158.181 116.984 160.366L116.982 160.393C116.816 161.903 117.494 163.066 118.682 164.069C119.901 165.097 121.547 165.857 123.057 166.507C124.815 167.233 126.658 167.694 128.635 168.273C130.584 168.844 132.611 169.518 134.543 170.659L135.32 171.12L135.081 171.595C136.617 172.699 137.955 174.123 138.951 175.724C140.108 177.582 140.815 179.699 140.815 182.059C140.815 184.213 140.102 186.33 138.951 188.179L138.945 188.189C134.803 194.659 126.17 196.874 119.215 195.072C115.186 194.166 111.598 192.136 108.685 188.996C108.078 188.386 107.62 187.744 107.321 187.008C107.021 186.273 106.899 185.495 106.899 184.646C106.899 183.637 107.149 182.663 107.379 181.968C107.655 181.139 108.184 180.367 108.899 179.648C109.203 179.343 109.616 179.074 109.962 178.861C110.351 178.62 110.674 178.437 110.978 178.233L111.029 178.2L111.083 178.172C112.161 177.631 113.009 177.64 113.876 177.64H113.995L114.11 177.669C114.539 177.777 114.782 177.8 115.259 177.903C115.671 177.991 116.112 178.117 116.613 178.362C117.412 178.645 118.157 179.165 118.852 179.863C119.378 180.391 119.856 181.13 120.303 182.023C120.813 182.826 121.049 183.816 121.064 184.766C121.308 186.17 120.724 187.29 120.322 188.099L120.282 188.177L120.229 188.246C119.681 188.981 119.09 189.618 118.347 190.114C118.363 190.132 118.379 190.154 118.399 190.175C118.603 190.379 118.989 190.609 119.586 190.817C120.764 191.227 122.419 191.436 123.965 191.436H124.005L124.045 191.44C126.308 191.629 128.207 190.891 129.981 189.518C131.301 188.265 131.716 186.583 131.109 184.928C130.486 183.231 128.722 181.399 125.353 180.168L125.348 180.166C117.157 177.135 112.697 174.489 110.236 171.989C108.208 169.928 107.578 167.999 107.291 166.219C107.117 166.532 106.92 166.833 106.706 167.12L106.581 167.288L106.396 167.389L106.394 167.391C106.392 167.393 106.385 167.395 106.381 167.398C106.372 167.403 106.357 167.411 106.339 167.421C106.303 167.441 106.248 167.471 106.178 167.509C106.036 167.587 105.827 167.701 105.562 167.846C105.03 168.137 104.268 168.556 103.348 169.061C101.507 170.071 99.0315 171.431 96.4975 172.831C92.1654 175.225 87.7217 177.702 85.9155 178.772C86.1972 179.251 86.6502 179.851 87.2781 180.465C88.2299 181.396 89.5089 182.283 91.0199 182.781C92.5192 183.275 94.2639 183.393 96.1914 182.777C98.121 182.159 100.294 180.783 102.614 178.202C103.061 177.548 103.54 177.056 104.092 176.833C104.402 176.709 104.731 176.672 105.054 176.739C105.371 176.804 105.623 176.958 105.811 177.12C106.165 177.425 106.371 177.827 106.478 178.076C106.536 178.211 106.579 178.334 106.608 178.423C106.622 178.467 106.633 178.506 106.641 178.534C106.645 178.548 106.647 178.561 106.65 178.57C106.651 178.575 106.653 178.58 106.654 178.583V178.587L106.656 178.589L106.664 178.623L106.671 178.657C107.031 180.708 106.727 184.891 104.417 188.585C102.058 192.358 97.6609 195.534 90.0494 195.535C82.2031 195.534 75.8559 189.302 73.2499 181.673C70.6294 174.002 71.6721 164.622 78.8825 158.058L78.9014 158.04C85.8265 152.095 92.6981 151.815 98.0466 153.911C100.695 154.949 102.949 156.561 104.644 158.313C105.802 159.511 106.719 160.805 107.323 162.056C107.74 160.477 108.629 158.845 109.87 157.391C111.937 154.969 115.084 152.904 119.078 152.216ZM92.4726 158.812C90.424 157.971 87.1717 158.192 84.7479 159.871C83.5593 160.695 82.5807 161.864 82.0374 163.421C81.5616 164.786 81.402 166.5 81.7775 168.614L81.9724 169.545L81.9766 169.564L81.9808 169.581C82.1434 170.397 82.2965 171.161 82.528 171.905L82.7879 172.646L82.7984 172.671L82.8089 172.699L83.2239 173.953C83.4185 174.439 83.5752 174.701 83.6809 174.833C83.6864 174.84 83.6927 174.846 83.6977 174.852C83.7365 174.838 83.7842 174.821 83.8507 174.793C83.9051 174.77 83.9799 174.739 84.0603 174.709C87.8583 172.8 91.4573 170.465 95.1056 168.094L95.3445 167.939H95.3634C95.3876 167.891 95.4202 167.837 95.4472 167.772C95.5529 167.517 95.6499 167.174 95.7198 166.758C95.8596 165.924 95.8798 164.874 95.7198 163.797C95.3929 161.602 94.3746 159.594 92.4726 158.812Z" fill="white"/>
<path fill-rule="evenodd" clip-rule="evenodd" d="M317.371 132.368C318.373 132.368 319.173 132.62 319.695 133.197C320.207 133.762 320.27 134.441 320.27 134.848V134.968L320.24 135.084C320.04 135.89 320.059 136.174 319.836 137.53L319.524 140.757C318.827 148.286 318.337 155.8 318.337 163.305C318.337 175.745 318.765 183.422 319.813 189.358C319.903 189.621 319.972 189.779 320.054 189.903C320.134 190.023 320.252 190.152 320.484 190.307C320.855 190.556 321.218 190.575 321.88 190.575V190.587C322.432 190.62 322.929 190.779 323.318 191.103C323.764 191.475 323.97 191.98 323.997 192.461C324.022 192.925 323.884 193.387 323.624 193.749C323.363 194.112 322.91 194.455 322.307 194.455H307.927C307.058 194.455 306.15 194.315 305.659 193.61C305.41 193.253 305.356 192.866 305.361 192.558C305.367 192.261 305.43 191.97 305.487 191.741L305.502 191.678L305.527 191.617C305.59 191.459 305.646 191.296 305.705 191.137C305.506 191.362 305.295 191.595 305.074 191.821C303.346 193.585 300.643 195.533 296.335 195.533C293.122 195.532 289.903 193.496 287.532 189.897C285.437 186.715 283.954 182.253 283.629 176.644C282.973 182.904 280.225 188.965 274.76 192.564L274.762 192.566C264.462 199.463 250.31 192.972 246.49 180.459L246.249 179.747C246.089 179.222 245.965 178.685 245.867 178.141C244.951 183.858 242.223 189.253 237.195 192.564L237.197 192.566C226.897 199.463 212.745 192.972 208.924 180.459L208.683 179.747C208.172 178.068 208.004 176.265 208.004 174.513C208.004 172.493 208.229 170.697 208.671 168.699C209.119 166.672 209.794 164.87 210.683 163.084C211.557 161.329 212.458 159.74 213.819 158.145L213.83 158.13L213.842 158.117C214.039 157.903 214.238 157.693 214.44 157.486C213.412 157.913 212.384 158.518 211.438 159.151C210.353 159.878 209.587 160.994 208.736 162.49L208.719 162.52L208.7 162.547C208.425 162.962 207.958 163.879 207.38 165.115C206.812 166.329 206.166 167.789 205.537 169.24C204.36 171.955 203.263 174.598 202.852 175.572V176.692C203.39 177.225 203.87 177.656 204.466 177.956C204.705 178.076 205.027 178.254 205.34 178.484C205.644 178.708 205.996 179.025 206.237 179.444C206.494 179.89 206.624 180.458 206.436 181.078C206.261 181.653 205.847 182.149 205.29 182.589C203.537 184.039 202.338 185.407 201.391 187.135C200.433 188.881 199.705 191.048 198.961 194.143L198.959 194.149C198.867 194.519 198.679 194.874 198.361 195.128C198.036 195.388 197.647 195.483 197.282 195.446C196.588 195.376 196.03 194.859 195.819 194.221C195.727 193.997 195.604 193.637 195.49 193.278C195.336 192.793 195.152 192.184 194.976 191.57C194.8 190.958 194.628 190.331 194.5 189.813C194.436 189.555 194.381 189.315 194.341 189.114C194.317 188.995 194.294 188.854 194.28 188.718C192.797 183.622 191.105 178.732 189.201 173.84C188.557 172.439 187.916 171.038 187.272 169.638C186.921 168.874 186.569 168.109 186.218 167.345C184.752 170.598 183.144 174.412 182.675 175.566V176.692C183.213 177.224 183.692 177.657 184.287 177.956C184.526 178.076 184.848 178.254 185.161 178.484C185.466 178.708 185.819 179.025 186.061 179.444C186.318 179.89 186.446 180.458 186.258 181.078C186.083 181.653 185.668 182.149 185.111 182.589L185.113 182.591C183.36 184.041 182.162 185.407 181.214 187.135C180.256 188.881 179.528 191.048 178.784 194.143L178.782 194.149C178.69 194.519 178.502 194.874 178.185 195.128C177.86 195.388 177.47 195.483 177.105 195.446C176.411 195.377 175.852 194.859 175.64 194.221C175.548 193.997 175.425 193.637 175.311 193.278C175.157 192.793 174.974 192.184 174.797 191.57C174.621 190.958 174.449 190.331 174.321 189.813C174.258 189.555 174.202 189.315 174.162 189.114C174.139 188.996 174.118 188.855 174.103 188.72C172.619 183.616 170.922 178.72 169.014 173.821C167.04 169.498 164.759 165.329 162.18 161.309L162.035 161.795L160.916 159.922C160.368 159.004 159.833 158.458 159.105 157.898C158.016 157.457 157.398 157.16 156.593 157.16H156.436L156.287 157.111C156.262 157.103 156.132 157.082 155.845 157.185C155.707 157.234 155.559 157.302 155.411 157.383V182.707C155.411 184.776 155.778 186.279 156.407 187.238C156.994 188.133 157.862 188.635 159.167 188.636C159.948 188.636 160.562 188.331 161.042 187.857C161.837 186.959 162.318 185.756 162.566 184.391C162.814 183.02 162.816 181.546 162.712 180.193L162.71 180.156V180.12C162.71 178.568 162.326 177.193 161.714 175.76C161.411 175.181 161.25 174.587 161.241 174.04C161.231 173.49 161.375 172.867 161.813 172.427C162.322 171.916 163.033 171.844 163.662 172.126C164.224 172.379 164.713 172.896 165.136 173.562L165.286 173.8V174.073C167.244 177.955 167.6 183.08 166.06 187.299C164.464 191.668 160.808 195.103 154.874 195.103C149.376 195.103 146.327 192.652 144.707 189.911C143.133 187.248 142.961 184.407 142.961 183.568V158.68C142.82 158.053 142.659 157.739 142.54 157.587C142.444 157.465 142.368 157.433 142.267 157.416C142.113 157.391 141.901 157.404 141.534 157.458C141.214 157.506 140.744 157.591 140.278 157.591H140.198L140.121 157.578C139.256 157.434 138.454 156.918 138.305 156.027C138.162 155.16 138.728 154.475 139.46 154.223C140.056 153.934 142.891 152.698 145.777 150.749C147.254 149.751 148.707 148.59 149.845 147.311C150.988 146.027 151.762 144.68 151.99 143.311C152.055 142.716 152.2 142.198 152.449 141.797C152.71 141.378 153.16 140.991 153.776 140.991C154.373 140.991 154.808 141.358 155.048 141.724C155.295 142.099 155.411 142.563 155.411 143.039V153.473C155.521 153.487 155.674 153.494 155.948 153.494H175.699C176.519 153.495 177.061 153.969 177.336 154.541C177.357 154.42 177.392 154.279 177.462 154.138C177.641 153.778 177.947 153.543 178.271 153.381L178.474 153.277H185.893V153.494H195.661C196.846 153.495 197.463 154.476 197.51 155.326C197.559 156.203 197.066 157.146 196.011 157.522C195.854 157.586 195.773 157.651 195.731 157.694C195.689 157.737 195.658 157.789 195.632 157.863C195.567 158.048 195.555 158.293 195.554 158.741C195.972 163.502 197.202 168.058 199.244 172.414C199.249 172.418 199.252 172.424 199.257 172.427C199.269 172.406 199.29 172.383 199.305 172.353L199.317 172.33C200.999 169.163 202.453 166.029 203.497 162.503V160.659C203.406 160.385 203.316 160.111 203.225 159.837C203.131 159.554 203.034 159.269 202.94 158.985C202.528 158.356 202.373 158.049 201.847 157.522C201.291 156.963 200.981 156.82 200.277 156.349L200.198 156.294L200.131 156.227C199.801 155.896 199.438 155.302 199.504 154.637C199.543 154.251 199.731 153.861 200.108 153.595C200.452 153.353 200.861 153.277 201.242 153.277H216.484C217.153 153.278 217.83 153.6 218.156 154.233C219.668 153.104 221.26 152.115 222.898 151.237L222.944 151.212L222.995 151.191C223.522 150.979 224.309 150.672 225.039 150.545C225.402 150.481 225.836 150.446 226.252 150.541C226.701 150.642 227.17 150.909 227.437 151.444L227.342 151.511C227.43 151.751 227.492 152.029 227.464 152.338C227.423 152.791 227.211 153.159 226.954 153.456C226.498 153.985 225.671 154.539 224.55 155.256L224.552 155.258C219.172 159.061 216.248 166.952 220.37 176.271C221.279 178.102 221.842 179.645 222.85 181.063L222.863 181.08C224.216 183.066 226.066 185.168 228.154 186.558C230.236 187.944 232.446 188.555 234.639 187.821L234.648 187.819C237.101 187.027 238.181 184.783 238.436 181.865C238.689 178.96 238.079 175.694 237.451 173.486L237.448 173.48C236.94 171.642 235.707 168.705 233.619 166.25C231.543 163.81 228.678 161.901 224.856 161.901C224.524 161.901 224.032 161.916 223.592 161.89C223.167 161.865 222.604 161.797 222.135 161.539C221.883 161.399 221.627 161.188 221.45 160.875C221.27 160.558 221.211 160.207 221.236 159.861C221.282 159.219 221.621 158.53 222.129 157.793L222.162 157.745L222.202 157.701C224.066 155.595 226.177 154.426 228.914 153.738L228.948 153.73C232.852 152.899 236.42 154.284 239.213 156.631C241.822 158.824 243.818 161.899 244.894 164.985L245.098 165.602L245.1 165.61C245.498 166.943 245.814 168.364 246.007 169.823C246.076 169.454 246.152 169.08 246.236 168.699C246.684 166.672 247.359 164.87 248.248 163.084C249.122 161.329 250.023 159.74 251.384 158.145L251.395 158.13L251.407 158.117C254.071 155.22 257.169 153.002 260.463 151.237L260.509 151.212L260.56 151.191C261.087 150.979 261.874 150.672 262.604 150.545C262.967 150.481 263.401 150.446 263.817 150.541C264.266 150.642 264.735 150.909 265.002 151.444L264.907 151.511C264.996 151.751 265.057 152.029 265.029 152.338C264.988 152.791 264.776 153.159 264.52 153.456C264.063 153.985 263.236 154.539 262.115 155.256L262.117 155.258C256.737 159.061 253.813 166.952 257.935 176.271C258.844 178.102 259.407 179.645 260.415 181.063L260.428 181.08C261.781 183.066 263.631 185.168 265.719 186.558C267.802 187.944 270.011 188.555 272.205 187.821L272.213 187.819C274.666 187.027 275.746 184.783 276.001 181.865C276.254 178.96 275.644 175.694 275.016 173.486L275.014 173.48C274.505 171.642 273.272 168.705 271.184 166.25C269.108 163.81 266.244 161.901 262.421 161.901C262.089 161.901 261.597 161.916 261.157 161.89C260.732 161.865 260.169 161.797 259.7 161.539C259.448 161.399 259.192 161.188 259.015 160.875C258.835 160.558 258.776 160.207 258.801 159.861C258.847 159.219 259.186 158.53 259.694 157.793L259.728 157.745L259.767 157.701C261.631 155.595 263.742 154.426 266.48 153.738L266.513 153.73C270.417 152.899 273.985 154.284 276.779 156.631C279.388 158.824 281.383 161.899 282.459 164.985L282.663 165.602L282.665 165.61C283.2 167.402 283.59 169.352 283.724 171.341C284.3 165.9 286.421 161.481 289.073 158.29C292.152 154.585 296.048 152.417 299.125 152.416C300.734 152.416 302.113 152.65 303.684 153.101C305.206 153.537 306.579 154.203 307.755 155.307C307.775 155.283 307.795 155.254 307.818 155.225V150.585C307.818 146.179 307.197 141.965 306.351 137.492C306.215 137.111 305.96 136.83 305.527 136.395C305.495 136.363 305.432 136.319 305.258 136.288C305.065 136.252 304.832 136.248 304.491 136.248C303.241 136.247 302.118 135.56 302.051 134.361C301.984 133.135 303.07 132.368 304.277 132.368H317.371ZM300.628 156.728C297.725 156.728 295.863 158.944 294.723 162.197C293.596 165.413 293.332 169.27 293.436 171.669L293.438 171.69V171.711C293.438 173.95 293.84 176.208 294.454 178.28C294.963 179.493 295.768 180.947 296.781 182.164C297.819 183.41 298.987 184.301 300.185 184.56L300.238 184.572L300.29 184.589C301.368 184.95 302.221 184.951 303.294 184.598C304.264 184.206 305.211 183.628 305.954 182.882L306.237 182.598H306.596C307.38 181.539 307.858 180.35 308.034 179.166V164.718C307.884 164.157 307.747 163.608 307.621 163.086C307.483 162.518 307.355 161.983 307.214 161.475C306.931 160.456 306.619 159.612 306.177 158.928C305.747 158.265 305.183 157.734 304.349 157.357C303.496 156.973 302.313 156.728 300.628 156.728ZM177.447 156.084C177.259 156.698 176.801 157.254 176.051 157.522C175.892 157.586 175.811 157.651 175.768 157.694C175.726 157.737 175.695 157.789 175.669 157.863C175.604 158.048 175.592 158.293 175.592 158.741C176.01 163.502 177.24 168.058 179.281 172.414C179.286 172.418 179.29 172.422 179.294 172.425C179.306 172.404 179.328 172.382 179.342 172.353L179.352 172.33C181.033 169.165 182.488 166.032 183.532 162.509V162.461C183.047 161.499 182.614 160.72 182.289 160.143C182.119 159.84 181.969 159.573 181.864 159.372C181.811 159.272 181.758 159.168 181.717 159.071C181.712 159.06 181.708 159.046 181.702 159.033C181.452 158.723 181.193 158.422 180.939 158.122C180.672 157.882 180.357 157.612 180.034 157.372C179.748 157.16 179.477 156.984 179.248 156.865C179.039 156.757 178.935 156.733 178.916 156.728C178.687 156.728 178.104 156.743 177.589 156.227L177.447 156.084Z" fill="white"/>
<path d="M34.2383 67.4765C34.7378 67.4765 35.2283 67.5397 35.647 67.5923C36.0863 67.6474 36.4559 67.6933 36.8146 67.6933H36.9362L37.0536 67.7228C41.4197 68.8472 44.658 71.0407 47.34 72.8723C48.6972 73.7992 49.8767 74.6102 51.019 75.1966C52.15 75.7771 53.1756 76.0996 54.2011 76.0997C54.4571 76.0998 54.7517 76.1417 55.0312 76.2239C55.3013 76.3036 55.6407 76.4454 55.9221 76.6997C56.2288 76.9772 56.489 77.4204 56.4294 77.9903C56.3761 78.4992 56.0832 78.9253 55.7439 79.2661C55.3525 79.6591 54.9315 79.948 54.6078 80.1756C54.2618 80.4188 54.0274 80.5905 53.8426 80.7945C53.5624 81.1042 53.2598 81.6349 53.436 83.1356C54.3931 86.6583 55.5977 90.9337 56.769 95.1968L57.9262 99.4537L57.9303 99.4705C58.346 101.14 58.9192 102.769 59.5088 104.384C59.7963 105.171 60.0901 105.961 60.3662 106.744C61.4782 102.706 62.8588 97.9111 64.0326 93.7294C64.7432 91.198 65.377 88.8904 65.8333 87.0978C66.0616 86.2007 66.2441 85.4393 66.3678 84.8493C66.4982 84.2275 66.5439 83.8783 66.5439 83.7525C66.5439 82.6501 66.54 81.9115 66.3594 81.1861C66.1753 80.4464 65.7998 79.681 65.3595 78.7966C65.0111 78.0971 64.4821 77.5554 63.823 76.8934C63.2692 76.3373 62.7165 75.9632 61.9279 75.5671L61.8734 75.5397L61.8231 75.506C61.2122 75.097 60.8553 74.3549 60.9762 73.6239C61.0402 73.2389 61.2407 72.8616 61.5925 72.5923C61.9384 72.3281 62.3604 72.2198 62.7874 72.2197H81.1381L80.9075 73.3797L80.8656 73.5881C81.1217 73.7406 81.348 73.9621 81.4882 74.2787C81.8753 75.1548 81.307 75.9213 80.7545 76.3376C80.5895 76.4719 80.4108 76.5596 80.2996 76.6092C80.1369 76.6818 79.9548 76.7478 79.7839 76.805C79.6105 76.8631 79.4234 76.9203 79.2515 76.9734C79.0848 77.025 78.9297 77.0738 78.7882 77.1208C77.916 77.4775 77.4478 77.9537 76.5368 78.6471C73.2391 82.1825 70.9716 86.3359 69.7302 90.9062L69.7281 90.9188C68.8745 93.9192 64.9247 107.076 62.9614 114.671C63.0004 114.739 63.048 114.819 63.0893 114.902C63.1854 115.095 63.2689 115.32 63.3052 115.591C63.6499 116.215 64.1419 116.724 64.7474 117.332C65.2919 117.828 65.7876 118.255 66.11 118.565C66.2812 118.73 66.4497 118.905 66.5858 119.085C66.7193 119.262 66.8671 119.505 66.9275 119.808C67.0734 120.54 66.6254 121.049 66.3301 121.321C66.0254 121.602 65.5641 121.92 65.0598 122.275L65.0577 122.273C62.7942 123.897 61.1256 125.125 59.7415 126.768C58.372 128.393 57.2436 130.477 56.1967 133.841L56.1737 133.917L56.1401 133.987C55.9743 134.32 55.7197 134.656 55.2849 134.831C54.9417 134.969 54.569 134.953 54.417 134.953C54.0538 134.953 53.6037 134.862 53.2515 134.509C52.9553 134.211 52.8457 133.843 52.8176 133.517C52.5718 132.728 52.1566 130.994 51.7485 128.336L51.2454 125.723C48.4333 111.938 41.2928 87.4246 38.0703 78.1019C37.5164 77.0108 36.7833 76.2607 35.7812 75.4555C34.8823 74.7336 33.807 74.3756 32.7353 74.3755H30.8046C30.3459 74.3755 29.8539 74.5303 29.1779 74.7566C28.6398 74.9367 28.2902 75.107 27.7336 75.4766C27.4961 75.7021 27.2315 75.9229 27.0062 76.1039C26.7278 76.3277 26.5046 76.5089 26.3354 76.6787C26.1182 76.8968 25.8673 77.1494 25.6457 77.3966C25.4072 77.6628 25.2724 77.848 25.2286 77.9355C25.1143 78.165 24.913 78.511 24.7842 78.7482C24.6313 79.0297 24.5013 79.2932 24.4215 79.5335L24.3817 79.6556L24.3104 79.765C23.9654 80.2848 23.8284 80.7479 23.8283 81.1672V83.1061C23.8283 84.2785 24.0202 85.2341 24.4026 86.1946C24.7946 87.1787 25.3923 88.1843 25.9958 88.9925C26.5295 89.707 27.2641 90.2763 28.2954 90.8978C29.163 91.4206 30.0151 91.7806 30.8508 91.9904L31.2092 92.0725L31.2679 92.0831L31.3245 92.102C31.768 92.2504 32.4127 92.265 33.0686 92.2662C33.2568 92.2222 33.4317 92.185 33.5885 92.1546C33.7905 92.1155 33.9497 92.0868 34.1021 92.0515C34.3897 91.9848 34.5889 91.9101 34.7771 91.7841C35.448 91.3349 36.0006 90.9617 36.3472 90.6136L36.4143 90.5441L36.4939 90.4915C36.933 90.1971 37.2445 89.7395 37.4016 89.2662L37.41 89.2409L37.4205 89.2136C37.5127 88.982 37.584 88.7585 37.6594 88.5209C37.7289 88.3021 37.8135 88.032 37.9236 87.7925C38.0362 87.5477 38.2133 87.2462 38.5168 87.0135C38.8403 86.7661 39.2173 86.6641 39.6048 86.6641H39.8333L40.0366 86.7651C40.5607 87.0284 40.8223 87.4875 40.9338 87.8978C41.0391 88.2861 41.0278 88.6793 40.9946 88.9799C40.9601 89.2914 40.8929 89.5764 40.8374 89.7757C40.8092 89.8766 40.782 89.9615 40.7619 90.022C40.7539 90.0461 40.7447 90.0665 40.7389 90.083C40.4854 91.0628 39.9896 92.0691 39.2149 92.8473C38.5865 93.4784 37.8367 94.2402 36.8167 94.7526C36.0143 95.1555 34.9394 95.7187 33.8086 95.7189H31.1652L31.096 95.7084C29.5128 95.4811 27.8552 95.0163 26.4046 94.0452C25.0693 93.1511 23.6933 92.0094 22.7508 90.8262C21.8658 89.7151 20.9263 88.3136 20.4428 86.6388C19.744 84.9478 19.7489 83.2747 19.7489 81.8135C19.749 81.3119 19.8119 80.8193 19.8642 80.3987C19.9191 79.9575 19.9649 79.5864 19.9649 79.2261V79.1061L19.9921 78.9903C20.2039 78.1396 20.4414 77.1762 20.9249 76.205C21.3454 75.3605 21.8032 74.4367 22.2728 73.7292L22.3252 73.6492L22.3944 73.5818C22.6806 73.2944 22.9221 73.0031 23.1931 72.6765C23.4447 72.3733 23.7239 72.0376 24.0568 71.6976C24.6036 70.9286 25.5298 70.2418 26.1467 69.826L26.4968 69.5776C27.2979 69.0372 27.9958 68.7722 28.656 68.4407L28.7503 68.3944L28.853 68.3691C29.2502 68.2694 29.584 68.1378 30.0877 67.9797C30.5014 67.8499 30.9923 67.7231 31.5174 67.7018C32.4789 67.4746 33.4229 67.4765 34.2383 67.4765Z" fill="white"/>
<path d="M124.053 89.4662H133.84C134.71 89.4663 135.617 89.6075 136.109 90.3125C136.357 90.6697 136.412 91.0574 136.406 91.3652C136.401 91.6618 136.337 91.953 136.28 92.182L136.255 92.2852L136.207 92.3799C135.617 93.5658 135.236 94.9272 135.236 96.2578V96.3526L135.218 96.4473C134.377 100.669 134.163 104.908 134.163 109.407C134.163 114.309 134.587 119.198 135.643 124.077L135.666 124.178V124.283C135.666 124.37 135.688 124.456 135.771 124.58C135.87 124.728 136.012 124.877 136.241 125.107C136.272 125.138 136.336 125.182 136.509 125.214C136.702 125.249 136.935 125.254 137.276 125.254H137.704C138.339 125.254 138.911 125.457 139.331 125.852C139.745 126.242 139.959 126.771 139.959 127.3C139.959 127.83 139.745 128.36 139.331 128.751C138.911 129.146 138.339 129.348 137.704 129.349H119.888C119.271 129.349 118.717 129.12 118.332 128.692C117.957 128.274 117.802 127.728 117.854 127.206C117.966 126.079 118.952 125.254 120.317 125.254C120.658 125.254 120.829 125.25 120.986 125.218C121.115 125.192 121.27 125.139 121.5 124.984C121.792 124.789 121.959 124.642 122.051 124.523C122.124 124.429 122.141 124.364 122.141 124.283V124.178L122.164 124.077C124.277 114.316 124.279 104.56 122.175 94.7989C122.082 94.5245 122.013 94.3613 121.929 94.2347C121.85 94.1147 121.732 93.9859 121.5 93.8304C121.379 93.7497 121.258 93.6952 121.129 93.6557C120.291 94.0133 119.499 94.4698 118.789 95.0641C117.601 96.0583 116.813 97.0417 116.003 98.4642L115.986 98.4937L115.97 98.521C115.694 98.9358 115.226 99.8521 114.647 101.089C114.079 102.303 113.433 103.762 112.804 105.214C111.627 107.93 110.532 110.573 110.121 111.546V112.666C110.659 113.198 111.138 113.631 111.733 113.93C111.972 114.05 112.295 114.228 112.607 114.458C112.912 114.682 113.265 115 113.507 115.418C113.763 115.865 113.892 116.432 113.704 117.052C113.528 117.627 113.115 118.123 112.557 118.563L112.559 118.565C110.806 120.016 109.608 121.38 108.66 123.109C107.702 124.856 106.974 127.021 106.23 130.117L106.228 130.123C106.136 130.493 105.949 130.849 105.631 131.102C105.306 131.361 104.916 131.457 104.551 131.42C103.857 131.351 103.298 130.833 103.086 130.195C102.994 129.971 102.871 129.609 102.757 129.25C102.603 128.766 102.42 128.157 102.243 127.544C102.067 126.932 101.896 126.305 101.767 125.787C101.704 125.529 101.648 125.289 101.608 125.088C101.585 124.97 101.564 124.829 101.549 124.694C100.065 119.591 98.3678 114.694 96.4597 109.795C94.1252 104.682 91.3679 99.7802 88.1858 95.0915C88.1708 95.0726 88.1567 95.0515 88.1418 95.0326C86.0878 104.715 86.1066 114.394 88.2025 124.077L88.2256 124.178V124.283C88.2257 124.37 88.2498 124.456 88.3325 124.58C88.431 124.728 88.574 124.877 88.8021 125.107C88.834 125.138 88.8971 125.183 89.0683 125.214C89.2619 125.249 89.4946 125.254 89.8355 125.254H90.0494C91.3958 125.254 92.4324 126.073 92.4915 127.252C92.5188 127.8 92.3108 128.345 91.8941 128.744C91.4744 129.146 90.8989 129.348 90.2653 129.349H72.4491C71.8319 129.349 71.2762 129.121 70.8916 128.692C70.5167 128.274 70.3618 127.728 70.4136 127.206C70.5258 126.08 71.512 125.254 72.8767 125.254C73.2178 125.254 73.3898 125.25 73.5475 125.218C73.6766 125.192 73.8292 125.138 74.059 124.984C74.3516 124.788 74.5183 124.642 74.6104 124.523C74.6833 124.429 74.7025 124.364 74.7026 124.283V124.178L74.7235 124.077C76.8365 114.315 76.8388 104.558 74.734 94.7968C74.6416 94.5236 74.5725 94.361 74.4888 94.2347C74.4091 94.1147 74.2911 93.9859 74.059 93.8304C73.6872 93.5815 73.3253 93.5631 72.6629 93.5631C71.9984 93.5631 71.4106 93.3742 70.967 92.9925C70.526 92.6128 70.3014 92.1047 70.2522 91.6115C70.2043 91.1301 70.3204 90.6253 70.6044 90.2178C70.8999 89.794 71.3931 89.4662 72.0194 89.4662L103.145 89.4683C104.329 89.4689 104.947 90.4498 104.994 91.2999C105.042 92.1765 104.55 93.1202 103.497 93.4957C103.338 93.5604 103.257 93.6247 103.214 93.6683C103.172 93.711 103.142 93.7629 103.115 93.8368C103.05 94.0216 103.038 94.2669 103.038 94.7147C103.456 99.4758 104.686 104.032 106.727 108.388C106.731 108.392 106.736 108.396 106.74 108.399C106.752 108.378 106.773 108.357 106.788 108.327L106.799 108.304C108.48 105.139 109.934 102.007 110.978 98.4831V96.5905C110.887 96.2696 110.812 95.9233 110.767 95.7399C110.699 95.4692 110.625 95.2646 110.498 95.0726C110.051 94.399 109.677 93.8442 109.331 93.4957C108.775 92.9375 108.464 92.7938 107.761 92.3231L107.681 92.2683L107.614 92.201C107.284 91.87 106.92 91.2763 106.985 90.6115C107.024 90.2253 107.213 89.8351 107.589 89.5694C107.934 89.326 108.344 89.2515 108.725 89.2515H120.166L121.768 89.4662H123.137L123.686 88.9146L124.053 89.4662Z" fill="white"/>
<path fill-rule="evenodd" clip-rule="evenodd" d="M197.538 89.0472C198.848 89.2666 200.039 89.5024 201.46 90.2157C202.861 90.9195 204.018 91.8521 204.931 92.7694C207.23 95.0789 208.612 97.8628 209.069 101.302L209.073 101.323C209.522 105.382 208.844 109.41 207.526 113.38L207.52 113.399C206.961 114.97 206.291 116.313 205.65 117.601C205.011 118.885 204.398 120.117 203.887 121.542C203.715 122.255 203.711 122.789 203.711 123.635C203.711 123.895 203.921 124.307 204.288 124.675C204.53 124.918 204.741 125.051 204.944 125.13C205.151 125.21 205.403 125.252 205.751 125.252H208.698L208.847 125.302C209.068 125.376 209.375 125.347 209.893 125.01C209.992 124.916 210.092 124.822 210.17 124.751C210.286 124.643 210.376 124.555 210.448 124.473C210.52 124.392 210.556 124.337 210.572 124.304C210.579 124.291 210.581 124.281 210.581 124.281V124.178L210.604 124.077C212.716 114.316 212.718 104.56 210.614 94.7989C210.521 94.524 210.451 94.3614 210.367 94.2347C210.287 94.1147 210.169 93.9859 209.937 93.8304C209.565 93.5818 209.203 93.5631 208.541 93.5631C207.878 93.5629 207.287 93.3726 206.849 92.9673C206.415 92.5644 206.232 92.04 206.208 91.5631C206.185 91.0979 206.308 90.6247 206.554 90.2451C206.794 89.8739 207.248 89.4663 207.897 89.4662H222.28C223.149 89.4663 224.054 89.6063 224.546 90.3104C224.795 90.6675 224.851 91.0551 224.846 91.3631C224.841 91.6019 224.795 91.8369 224.749 92.0389V92.4536C224.81 92.4342 224.888 92.4079 224.98 92.3652C225.196 92.2643 225.45 92.1163 225.732 91.9357C226.02 91.7519 226.292 91.5657 226.586 91.3715C226.837 91.2052 227.11 91.0308 227.363 90.8978C228.466 90.2334 229.881 89.5103 231.35 89.2641C232.729 89.0334 234.098 89.0346 235.373 89.0346H235.453L235.532 89.0472C236.843 89.2667 238.034 89.5023 239.455 90.2157C240.856 90.9195 242.013 91.8521 242.926 92.7694C245.225 95.0789 246.607 97.8629 247.064 101.302L247.066 101.323C247.188 102.426 247.222 103.527 247.188 104.624C248.069 100.932 250.057 97.383 253.414 94.4473L253.43 94.4347C260.142 88.8182 266.841 88.5458 272.043 90.4978C274.621 91.4652 276.817 92.9727 278.458 94.6136C280.083 96.2391 281.232 98.0647 281.608 99.7042H281.604C281.898 100.698 281.552 101.61 281.242 102.172C281.073 102.475 280.892 102.725 280.753 102.898C280.683 102.984 280.622 103.054 280.577 103.104C280.554 103.129 280.535 103.15 280.52 103.165L280.388 103.298L280.258 103.367L280.256 103.369C280.254 103.371 280.25 103.372 280.246 103.374C280.237 103.378 280.223 103.386 280.206 103.395C280.171 103.413 280.117 103.443 280.049 103.479C279.912 103.552 279.71 103.659 279.453 103.795C278.939 104.068 278.201 104.461 277.311 104.934C275.53 105.88 273.135 107.153 270.681 108.46C266.62 110.622 262.41 112.873 260.528 113.89C260.831 114.327 261.266 114.849 261.832 115.376C262.774 116.254 264.018 117.092 265.48 117.565C266.931 118.035 268.614 118.152 270.479 117.578C272.348 117.003 274.456 115.716 276.724 113.287C277.169 112.689 277.634 112.236 278.154 112.031C278.446 111.916 278.763 111.877 279.08 111.944C279.392 112.011 279.637 112.167 279.816 112.332C280.149 112.639 280.323 113.038 280.407 113.271C280.454 113.401 280.487 113.517 280.508 113.601C280.518 113.644 280.527 113.679 280.533 113.706C280.536 113.72 280.538 113.731 280.539 113.74C280.54 113.745 280.541 113.749 280.541 113.753L280.543 113.757V113.761C280.905 115.708 280.657 119.628 278.418 123.088C276.127 126.626 271.832 129.565 264.352 129.566C256.64 129.565 250.443 123.744 247.907 116.578C247.077 114.234 246.631 111.721 246.645 109.186C246.361 110.59 245.983 111.989 245.521 113.38C245.071 114.948 244.406 116.499 243.741 117.995C243.063 119.521 242.388 120.983 241.867 122.443C241.715 122.91 241.706 123.596 241.706 124.283C241.706 124.37 241.73 124.456 241.813 124.58C241.911 124.728 242.054 124.877 242.282 125.107C242.314 125.138 242.379 125.183 242.551 125.214C242.744 125.249 242.976 125.252 243.316 125.252C243.897 125.252 244.449 125.397 244.886 125.66C245.281 125.898 245.785 126.374 245.785 127.086V127.315L245.683 127.519L245.618 127.648C245.652 128.116 245.48 128.568 245.261 128.881C244.914 129.379 244.311 129.78 243.532 129.78H233.227C233.022 129.78 232.649 129.781 232.325 129.749C232.172 129.733 231.959 129.703 231.763 129.635C231.668 129.602 231.508 129.536 231.355 129.406C231.294 129.354 231.232 129.285 231.172 129.201C231.072 129.105 230.902 128.93 230.753 128.711C230.498 128.337 230.261 127.816 230.13 127.096C229.874 125.676 230.035 123.497 231.243 120.077C233.151 114.432 234.085 109.428 234.059 105.479C234.032 101.485 233.031 98.7907 231.34 97.4494L231.336 97.4452C230.519 96.7896 229.501 96.5801 228.076 96.58C227.503 96.58 226.873 96.8681 225.99 97.3105C225.366 97.7325 224.729 98.2494 224.431 98.8473L224.397 98.9147L224.353 98.9758C223.428 100.276 223.022 101.96 222.867 103.856C222.71 105.77 222.816 107.719 222.816 109.622C222.816 114.524 223.24 119.413 224.296 124.292L224.319 124.393V124.498C224.319 124.585 224.342 124.67 224.424 124.795C224.523 124.943 224.666 125.092 224.894 125.321C224.926 125.353 224.989 125.399 225.162 125.431C225.356 125.466 225.589 125.469 225.929 125.469C227.276 125.469 228.311 126.29 228.369 127.469C228.396 128.016 228.188 128.56 227.772 128.959C227.352 129.361 226.777 129.563 226.143 129.563H195.234C195.03 129.563 194.657 129.564 194.332 129.532C194.179 129.517 193.967 129.488 193.771 129.42C193.676 129.387 193.514 129.321 193.36 129.191C193.3 129.14 193.238 129.071 193.179 128.989C193.08 128.893 192.908 128.716 192.758 128.496C192.503 128.122 192.266 127.602 192.135 126.881C191.878 125.461 192.04 123.282 193.249 119.862C195.156 114.217 196.09 109.214 196.064 105.264C196.038 101.271 195.038 98.5762 193.347 97.2347L193.341 97.2305C192.524 96.5747 191.506 96.3653 190.081 96.3652C189.508 96.3652 188.878 96.6513 187.995 97.0936C187.371 97.5156 186.736 98.0328 186.438 98.6305L186.404 98.7L186.36 98.761C185.435 100.062 185.027 101.743 184.872 103.639C184.715 105.554 184.822 107.504 184.822 109.407C184.822 114.309 185.245 119.198 186.302 124.077L186.325 124.178V124.283C186.325 124.37 186.349 124.456 186.432 124.58C186.53 124.728 186.673 124.878 186.901 125.107C186.933 125.138 186.996 125.183 187.167 125.214C187.361 125.249 187.594 125.252 187.935 125.252C189.281 125.252 190.316 126.073 190.375 127.252C190.402 127.8 190.194 128.345 189.777 128.744C189.357 129.146 188.782 129.348 188.148 129.349H170.332C169.715 129.349 169.161 129.119 168.777 128.69C168.402 128.271 168.247 127.726 168.299 127.203C168.412 126.078 169.397 125.252 170.762 125.252C171.102 125.252 171.273 125.25 171.431 125.218C171.56 125.192 171.714 125.139 171.944 124.984C172.237 124.789 172.404 124.642 172.496 124.523C172.568 124.429 172.586 124.364 172.586 124.283V124.178L172.609 124.077C174.721 114.316 174.723 104.56 172.619 94.7989C172.526 94.5242 172.458 94.3614 172.374 94.2347C172.294 94.1147 172.176 93.9859 171.944 93.8304C171.573 93.5816 171.21 93.5631 170.548 93.5631C169.885 93.5631 169.294 93.3727 168.856 92.9673C168.422 92.5643 168.239 92.0403 168.215 91.5631C168.192 91.0976 168.315 90.6248 168.561 90.2451C168.801 89.8739 169.253 89.4665 169.902 89.4662H184.285C185.154 89.4663 186.062 89.6055 186.553 90.3104C186.802 90.6675 186.856 91.0551 186.851 91.3631C186.846 91.6019 186.8 91.8369 186.754 92.0389V92.4557C186.815 92.4363 186.893 92.4081 186.985 92.3652C187.201 92.2643 187.455 92.1163 187.738 91.9357C188.025 91.7519 188.297 91.5657 188.591 91.3715C188.842 91.2052 189.115 91.0308 189.368 90.8978C190.471 90.2333 191.888 89.5101 193.358 89.2641C194.737 89.0335 196.106 89.0346 197.38 89.0346H197.46L197.538 89.0472ZM266.136 95.001C264.194 94.2678 261.049 94.538 258.698 96.1442C257.543 96.9334 256.604 98.0296 256.088 99.4642C255.637 100.72 255.489 102.288 255.864 104.218L256.057 105.066L256.07 105.121C256.278 106.166 256.477 106.966 256.877 107.97L257.306 109.047C257.504 109.543 257.663 109.808 257.77 109.942C257.775 109.949 257.783 109.955 257.788 109.961C257.827 109.946 257.875 109.93 257.941 109.902C257.994 109.88 258.065 109.852 258.143 109.822C261.965 107.902 265.536 106.001 268.888 103.694C268.929 103.651 269.012 103.547 269.1 103.336C269.198 103.101 269.288 102.788 269.349 102.405C269.472 101.639 269.474 100.676 269.303 99.6831C268.957 97.6723 267.955 95.7937 266.136 95.001Z" fill="white"/>
<path fill-rule="evenodd" clip-rule="evenodd" d="M142.666 94.4347C149.377 88.818 156.076 88.546 161.278 90.4978C163.856 91.4651 166.052 92.9727 167.693 94.6136C169.115 96.0358 170.171 97.6112 170.666 99.081L170.844 99.7042L170.85 99.7316C171.145 101.215 170.528 102.39 169.726 103.195L169.624 103.298L169.494 103.367L169.492 103.369C169.489 103.371 169.485 103.372 169.481 103.374C169.472 103.378 169.458 103.386 169.441 103.395C169.406 103.414 169.352 103.443 169.284 103.479C169.147 103.552 168.945 103.659 168.689 103.795C168.174 104.068 167.437 104.461 166.546 104.934C164.766 105.88 162.37 107.153 159.916 108.46C155.855 110.622 151.645 112.873 149.764 113.89C150.066 114.327 150.502 114.848 151.068 115.376C152.01 116.254 153.253 117.092 154.715 117.565C156.166 118.035 157.85 118.152 159.715 117.578C161.583 117.003 163.692 115.716 165.959 113.287C166.404 112.689 166.869 112.236 167.389 112.031C167.681 111.915 167.999 111.877 168.316 111.944C168.628 112.011 168.872 112.167 169.051 112.332C169.385 112.639 169.558 113.038 169.643 113.271C169.69 113.401 169.722 113.517 169.743 113.601C169.754 113.644 169.763 113.679 169.768 113.706C169.771 113.72 169.773 113.731 169.775 113.74C169.775 113.745 169.776 113.749 169.777 113.753L169.779 113.757V113.761C170.141 115.708 169.893 119.627 167.653 123.088C165.363 126.626 161.068 129.566 153.587 129.566C145.875 129.565 139.679 123.744 137.142 116.578C134.592 109.374 135.643 100.576 142.649 94.4473L142.666 94.4347ZM155.581 94.9989C153.639 94.2682 150.496 94.5391 148.147 96.1442C146.993 96.9334 146.053 98.0298 145.538 99.4642C145.022 100.899 144.903 102.743 145.506 105.066L145.514 105.094L145.519 105.121C145.727 106.166 145.928 106.966 146.328 107.97L146.758 109.047C146.955 109.543 147.114 109.808 147.221 109.942C147.226 109.949 147.233 109.955 147.238 109.961C147.277 109.946 147.324 109.93 147.391 109.902C147.445 109.879 147.519 109.848 147.6 109.818C151.42 107.899 154.989 105.999 158.339 103.694C158.381 103.65 158.463 103.546 158.551 103.336C158.649 103.101 158.737 102.788 158.799 102.405C158.921 101.639 158.925 100.676 158.755 99.6831C158.408 97.6702 157.404 95.7901 155.581 94.9989Z" fill="white"/>
<path d="M81.463 76.6387C82.3214 76.6387 82.9652 76.6395 83.8234 77.0703C84.6821 77.5014 85.3269 77.7183 85.7562 78.365C86.3997 79.0114 86.8286 79.6576 87.0433 80.304C87.258 80.9507 87.473 81.8143 87.473 82.6766C87.473 83.5386 87.4725 84.1852 87.0433 85.0472C86.8286 85.6939 86.4001 86.5572 85.7562 86.9883C85.1123 87.6348 84.4673 88.0654 83.8234 88.2809C83.1796 88.4964 82.3213 88.7125 81.463 88.7125C80.6047 88.7125 79.9609 88.7117 79.1027 88.2809C78.4589 88.0654 77.5993 87.6347 77.1699 86.9883C76.526 86.3416 76.0975 85.6939 75.8828 85.0472C75.6682 84.4007 75.4532 83.5387 75.453 82.6766C75.453 81.8143 75.4535 81.1663 75.8828 80.304C76.0975 79.6576 76.5263 79.0114 77.1699 78.365C77.8139 77.7183 78.4587 77.2859 79.1027 77.0703C79.7465 76.8548 80.6048 76.6387 81.463 76.6387Z" fill="white"/>
<path d="M128.688 76.6387C129.546 76.6387 130.19 76.6395 131.048 77.0703C131.907 77.5014 132.552 77.7183 132.981 78.365C133.624 79.0114 134.053 79.6576 134.268 80.304C134.483 80.9507 134.698 81.8143 134.698 82.6766C134.698 83.5386 134.697 84.1852 134.268 85.0472C134.053 85.6939 133.625 86.5572 132.981 86.9883C132.337 87.6348 131.692 88.0654 131.048 88.2809C130.404 88.4964 129.546 88.7125 128.688 88.7125C127.829 88.7125 127.186 88.7117 126.327 88.2809C125.684 88.0654 124.824 87.6347 124.395 86.9883C123.751 86.3416 123.322 85.6939 123.107 85.0472C122.893 84.4007 122.678 83.5387 122.678 82.6766C122.678 81.8143 122.678 81.1663 123.107 80.304C123.322 79.6576 123.751 79.0114 124.395 78.365C125.039 77.7183 125.683 77.2859 126.327 77.0703C126.971 76.8548 127.83 76.6387 128.688 76.6387Z" fill="white"/>
<path fill-rule="evenodd" clip-rule="evenodd" d="M168.142 2.56845C167.423 3.70305 166.81 4.93692 166.433 5.94533C166.244 6.45253 166.126 6.87278 166.077 7.17692C166.067 7.23753 166.066 7.28977 166.062 7.33271C166.072 7.3372 166.079 7.34446 166.087 7.34745C166.123 7.36022 166.214 7.38629 166.412 7.33481C166.873 7.21481 167.74 6.72812 169.219 5.24216L169.251 5.21269L169.284 5.18321L172.156 2.77898V20.2886L169.284 17.8844L169.251 17.857L169.219 17.8254C168.605 17.2091 167.794 16.4973 167.026 15.9749C166.641 15.7129 166.294 15.5168 166.008 15.4002C165.917 15.3635 165.843 15.339 165.783 15.3223C165.787 15.409 165.797 15.5194 165.819 15.6549C165.89 16.0933 166.059 16.6502 166.328 17.2528C166.58 17.816 166.905 18.3824 167.278 18.9034C167.503 18.9791 167.728 19.0554 167.953 19.1307C168.275 19.2384 168.598 19.3451 168.919 19.4528C169.356 19.5992 169.711 19.8173 169.97 19.9728C170.109 20.0566 170.224 20.1253 170.33 20.1813L170.636 20.316L170.76 20.356L170.867 20.4297C171.167 20.6309 171.418 20.7818 171.686 20.9434L172.584 21.5076L172.663 21.5602L172.732 21.6276C172.902 21.7975 173.125 21.9785 173.403 22.2023C173.661 22.4091 173.974 22.6615 174.233 22.9223C174.648 23.3384 175.116 23.8097 175.585 24.4992C176.076 25.0114 176.534 25.7059 176.776 26.1919C176.876 26.3931 176.996 26.5883 177.189 26.9434C177.318 27.181 177.462 27.4606 177.583 27.7603C182.95 28.5231 188.413 29.6701 192.647 31.2677C194.906 32.1201 196.876 33.1232 198.299 34.3056C199.722 35.4888 200.705 36.9492 200.705 38.6972C200.705 40.9236 199.147 42.7277 196.955 44.1415C194.733 45.5743 191.63 46.7638 188.018 47.7184C183.269 48.9737 177.531 49.844 171.523 50.2974C171.481 50.3212 171.437 50.3456 171.391 50.3647C168.269 52.565 164.901 53.6806 161.1 53.6806L161.046 53.4553C157.505 53.3665 154.148 52.3018 151.353 50.2405C145.594 49.7725 140.141 48.9216 135.605 47.7184C132.007 46.7636 128.923 45.5732 126.717 44.1394C124.539 42.7231 122.999 40.919 122.998 38.6972C122.999 36.7462 123.616 35.121 124.812 33.794C125.984 32.4942 127.661 31.5365 129.694 30.7814C133.613 29.3258 139.189 28.5125 145.946 27.6824C146.077 27.3949 146.232 27.149 146.384 26.9308C146.638 26.5675 146.762 26.4269 146.988 26.0866C147.347 25.5467 147.664 24.9512 148.183 24.4297C148.352 24.2598 148.532 24.0358 148.755 23.756C148.961 23.4978 149.211 23.1831 149.47 22.9223C149.73 22.6615 150.045 22.4091 150.302 22.2023C150.581 21.9786 150.804 21.7974 150.973 21.6276C151.293 21.3061 151.669 21.0879 151.971 20.9223C152.303 20.7406 152.562 20.6132 152.837 20.4297C153.542 19.9575 154.049 19.6991 154.784 19.4528C155.032 19.3699 155.28 19.2871 155.528 19.2044C156.196 18.4669 156.773 17.6962 157.176 16.9833C157.482 16.4418 157.666 15.9778 157.736 15.6191C157.753 15.5286 157.759 15.4516 157.763 15.3875C157.689 15.4127 157.601 15.4397 157.503 15.4823C157.194 15.6165 156.833 15.8171 156.447 16.0675C155.672 16.5695 154.866 17.2276 154.271 17.8254L151.334 20.775V3.26319L153.988 5.39585C155.706 6.81669 156.656 7.23384 157.109 7.32639C157.089 7.1413 157.054 6.8919 156.973 6.57481C156.76 5.74285 156.267 4.42949 155.126 2.55371L155.122 2.54739L154.476 1.46949L153.6 0H169.676L168.142 2.56845ZM187.538 32.8593C188.493 33.3391 189.36 33.8908 190.05 34.5246C190.997 35.3953 191.689 36.4989 191.689 37.8341C191.689 38.6462 191.297 39.3605 190.769 39.9499C190.238 40.5421 189.501 41.0873 188.639 41.5899C186.91 42.5971 184.502 43.5282 181.7 44.3205C180.135 44.7631 178.431 45.1641 176.634 45.5163C176.594 45.5731 176.548 45.6334 176.502 45.7036L176.449 45.7836L176.38 45.851L176.367 45.8657C176.362 45.8711 176.354 45.8778 176.346 45.8847C176.332 45.8986 176.312 45.916 176.29 45.9352C176.245 45.9742 176.179 46.0271 176.099 46.0805C175.97 46.1667 175.666 46.3519 175.269 46.3521H174.439L174.156 46.0678L174.064 45.9731C170.084 46.6123 165.769 46.9963 161.53 46.9963C157.755 46.9963 153.911 46.7957 150.294 46.4026C150.177 46.4739 150.041 46.534 149.881 46.5563L149.724 46.5668H148.858C152.824 46.9786 157.216 47.2131 161.96 47.2131C172.843 47.2131 181.875 45.978 188.155 44.2026C191.301 43.3131 193.709 42.3012 195.307 41.272C196.969 40.2016 197.485 39.2958 197.485 38.6972C197.485 37.9169 197.129 37.165 196.276 36.4088C195.404 35.6368 194.068 34.9128 192.268 34.2446C190.907 33.7396 189.32 33.2813 187.538 32.8593ZM132.765 34.1435C132.03 34.4134 131.36 34.6912 130.755 34.9709C129.15 35.7116 128.033 36.4573 127.334 37.1393C126.624 37.8316 126.434 38.3654 126.434 38.6972C126.435 39.2958 126.95 40.2017 128.612 41.272C130.211 42.3012 132.619 43.3131 135.765 44.2026C139.026 45.1247 143.031 45.8967 147.651 46.43C147.474 46.3563 147.287 46.2457 147.11 46.0678L147.047 46.0047L147.034 45.9857C145.025 45.6868 143.123 45.3243 141.389 44.8931C138.584 44.1955 136.148 43.3096 134.394 42.211C132.667 41.1291 131.371 39.6881 131.371 37.8341C131.371 36.3321 131.897 35.1141 132.765 34.1435ZM174.984 40.9162C170.784 43.072 166.183 43.9406 161.316 43.7647C161.305 43.7642 161.292 43.7629 161.281 43.7626V43.7562C156.939 43.7051 152.932 42.9365 149.101 41.3583C149.382 42.0319 149.729 42.6852 150.139 43.3247C153.53 43.7355 157.363 43.9794 161.53 43.9794C166.199 43.9794 170.449 43.6738 174.129 43.1689C174.158 43.1048 174.192 43.0404 174.223 42.971C174.277 42.8503 174.34 42.7057 174.405 42.5752C174.573 42.2371 174.753 41.7037 174.963 41.072C174.968 41.019 174.976 40.9667 174.984 40.9162ZM143.823 33.6488C140.689 34.3211 138.49 35.1206 137.035 35.912C136.135 36.4019 135.555 36.8688 135.211 37.2635C134.865 37.6611 134.805 37.9295 134.805 38.0509C134.805 38.1563 134.852 38.3541 135.1 38.6509C135.351 38.9502 135.764 39.2949 136.371 39.6615C137.584 40.3944 139.421 41.1269 141.819 41.7752C142.838 42.0506 143.95 42.3058 145.148 42.5415C144.285 40.4615 143.821 38.2258 143.821 35.8951V33.9561C143.821 33.8606 143.821 33.7572 143.823 33.6488ZM179.669 37.8362C179.669 38.4637 179.688 39.395 179.078 40.3141C178.95 40.5065 178.875 40.7101 178.807 40.9815C178.753 41.2013 178.666 41.6599 178.545 42.0236C178.503 42.1519 178.454 42.2937 178.401 42.4447C179.413 42.2361 180.362 42.0128 181.241 41.7752C183.639 41.1269 185.476 40.3944 186.689 39.6615C187.296 39.2948 187.709 38.9503 187.96 38.6509C188.208 38.3539 188.255 38.1563 188.255 38.0509C188.255 37.4191 188.104 36.9823 187.821 36.6256C187.52 36.2455 187 35.8687 186.113 35.4972C184.714 34.9121 182.64 34.4357 179.669 33.8972V37.8362ZM161.744 35.7877C161.291 35.7878 161.085 35.8005 160.889 35.8993C160.734 35.9771 160.617 36.055 160.457 36.1625C160.424 36.1844 160.387 36.204 160.35 36.2277V37.2951H159.645C159.619 37.4312 159.592 37.5498 159.57 37.6383C159.511 37.8765 159.49 37.9756 159.49 38.0509C159.49 38.506 159.505 38.7121 159.604 38.9099L159.706 39.1141V39.2383C159.711 39.2449 159.716 39.2534 159.723 39.2615C159.749 39.2923 159.776 39.323 159.815 39.3688C159.852 39.4109 159.897 39.4648 159.943 39.5225C160 39.5937 160.062 39.6817 160.125 39.7815C160.128 39.7831 160.131 39.786 160.134 39.7878C160.18 39.82 160.241 39.8591 160.318 39.9036C160.478 39.9953 160.668 40.0899 160.889 40.2004C161.082 40.2978 161.285 40.3115 161.723 40.312C161.732 40.312 161.741 40.312 161.75 40.312C162.199 40.3119 162.405 40.2988 162.601 40.2004L162.805 40.0994H162.928C162.935 40.094 162.943 40.0873 162.951 40.0804C162.982 40.0548 163.013 40.0274 163.058 39.9878C163.1 39.9513 163.154 39.9059 163.211 39.8594C163.283 39.8014 163.369 39.7362 163.469 39.672L163.473 39.6699C163.505 39.6234 163.544 39.5608 163.589 39.4825C163.656 39.364 163.722 39.2274 163.798 39.0762C163.825 38.8262 163.884 38.6048 163.92 38.4615C163.979 38.2238 163.999 38.1261 163.999 38.0509C163.999 37.9424 163.991 37.8482 163.989 37.7646L162.299 37.8467L163.475 36.6656C163.435 36.5721 163.399 36.4619 163.377 36.3393C163.372 36.3323 163.367 36.3255 163.362 36.3183C163.36 36.317 163.358 36.3154 163.356 36.3141C163.31 36.2818 163.249 36.2428 163.171 36.1983C163.053 36.1305 162.917 36.0619 162.767 35.9856C162.518 35.9582 162.297 35.9015 162.155 35.8656C161.918 35.8061 161.819 35.7877 161.744 35.7877ZM172.489 36.2151C171.722 36.4898 170.944 36.7274 170.154 36.9288C170.215 36.9906 170.275 37.0728 170.332 37.1878C170.547 37.4033 170.76 37.6199 170.76 38.0509C170.76 38.4815 170.76 38.6966 170.332 38.912C170.118 39.1276 169.902 39.3436 169.473 39.3436C169.043 39.3436 168.828 39.3431 168.613 38.912C168.399 38.6968 168.186 38.4812 168.186 38.0509C168.186 37.6975 168.186 37.4902 168.423 37.3078C168.02 37.3817 167.614 37.4479 167.205 37.5035C167.214 37.6126 167.219 37.7229 167.219 37.8341C167.219 38.1376 167.221 38.5065 167.146 38.8867C167.073 39.253 166.93 39.598 166.704 39.9646C169.434 39.5707 171.958 38.8427 174.024 37.8025C173.947 37.8217 173.862 37.8341 173.766 37.8341C173.337 37.8341 173.121 37.8354 172.906 37.4046C172.692 37.189 172.479 36.9726 172.479 36.5414C172.479 36.4162 172.479 36.3092 172.489 36.2151ZM154.661 37.1878C154.875 37.4033 155.09 37.6198 155.09 38.0509C155.09 38.4818 155.09 38.6965 154.661 38.912C154.446 39.1275 154.232 39.3434 153.803 39.3436C153.717 39.3436 153.639 39.3407 153.568 39.3373C154.605 39.5974 155.682 39.8062 156.784 39.9625C156.779 39.9465 156.773 39.9303 156.767 39.9141C156.52 39.3926 156.27 38.633 156.27 37.8341C156.27 37.7264 156.272 37.6105 156.275 37.4888C155.726 37.3968 155.184 37.29 154.648 37.1667C154.652 37.1739 154.657 37.1803 154.661 37.1878ZM150.288 35.8193C150.449 35.9967 150.583 36.2019 150.583 36.5414C150.583 36.9726 150.583 37.189 150.154 37.4046C149.939 37.62 149.723 37.8341 149.294 37.8341C149.278 37.8341 149.262 37.832 149.246 37.832C150.456 38.3992 151.79 38.8677 153.204 39.2425C153.109 39.1797 153.026 39.0774 152.944 38.912C152.729 38.6967 152.514 38.4814 152.514 38.0509C152.514 37.6198 152.514 37.4033 152.944 37.1878C153.073 37.0576 153.203 36.9273 153.38 36.8446C152.33 36.5537 151.302 36.2077 150.288 35.8193ZM175.806 34.7688C175.357 35.0004 174.906 35.2187 174.451 35.4235C174.511 35.4849 174.569 35.566 174.625 35.6783C174.84 35.8938 175.053 36.1103 175.053 36.5414C175.053 36.9725 175.054 37.1891 174.625 37.4046C174.555 37.4749 174.481 37.5397 174.403 37.6025C174.916 37.3266 175.399 37.0326 175.845 36.7162C175.825 36.5355 175.806 36.318 175.806 36.112V34.7688ZM148.141 37.0551C148.145 37.1269 148.149 37.1986 148.154 37.2699C148.254 37.3255 148.353 37.3842 148.456 37.4383C148.45 37.4271 148.443 37.4164 148.437 37.4046C148.33 37.2971 148.222 37.1893 148.141 37.0551ZM148.114 35.9288C148.177 35.8382 148.278 35.758 148.437 35.6783C148.592 35.5219 148.748 35.3648 148.986 35.2909C148.694 35.1677 148.404 35.0412 148.114 34.9119V35.9288ZM166.79 24.5371V34.2172C169.784 33.7302 172.536 32.8394 175.158 31.3014L174.565 29.514C174.498 29.3149 174.393 29.1309 174.25 28.9161C174.134 28.7407 173.903 28.4246 173.76 28.1371C173.583 27.7826 173.212 27.2254 172.869 26.8803C172.654 26.6651 172.439 26.4492 172.225 26.234C172.011 26.0185 171.794 25.8031 171.579 25.5876C171.112 25.1181 170.802 24.8208 170.544 24.6908L170.403 24.6213L170.292 24.5097C170.177 24.3934 170.015 24.2897 169.726 24.116C169.509 23.985 169.196 23.7965 168.911 23.5413C168.687 23.4212 168.439 23.2743 168.225 23.1455C168.148 23.0987 168.072 23.0567 168.001 23.015L166.79 24.5371ZM156.883 22.7455L156.201 23.5055L155.715 23.0171C155.477 23.1322 155.305 23.2565 155.13 23.4318L155.019 23.5434L154.879 23.6129C154.525 23.7904 153.971 24.1647 153.627 24.5097C153.358 24.7801 153.089 24.9787 152.879 25.1371C152.66 25.3017 152.499 25.4275 152.34 25.5876C152.125 25.8031 151.909 26.0185 151.694 26.234C151.48 26.4492 151.265 26.6651 151.051 26.8803C150.712 27.2206 150.599 27.4896 150.099 28.2424C149.704 28.838 149.509 29.2267 149.3 29.6466C149.132 29.9849 148.951 30.5177 148.741 31.1498C148.736 31.1966 148.726 31.2418 148.72 31.2866C151.443 32.5888 154.181 33.4966 157.13 33.9288V22.4613C157.044 22.5584 156.964 22.6551 156.883 22.7455ZM162.14 21.775C162.23 21.8383 162.31 21.9379 162.389 22.0971C162.604 22.3126 162.819 22.5291 162.819 22.9602C162.819 23.3909 162.818 23.6059 162.389 23.8213C162.175 24.0369 161.959 24.2529 161.53 24.2529C161.101 24.2529 160.887 24.2524 160.673 23.8213C160.55 23.5755 160.432 23.4667 160.35 23.3413V26.2276C160.413 26.1371 160.514 26.0568 160.673 25.9771C160.887 25.7619 161.101 25.5477 161.53 25.5476C161.959 25.5476 162.175 25.5464 162.389 25.9771C162.604 26.1927 162.819 26.4091 162.819 26.8403C162.819 27.2714 162.819 27.4879 162.389 27.7034C162.175 27.919 161.959 28.1329 161.53 28.1329C161.101 28.1329 160.887 28.1334 160.673 27.7034C160.551 27.4582 160.432 27.3484 160.35 27.2234V30.3245C160.413 30.2338 160.514 30.1538 160.673 30.074C161.101 29.8586 161.101 29.6425 161.53 29.6424C161.959 29.6424 162.175 29.6428 162.389 30.074C162.604 30.2895 162.819 30.5062 162.819 30.9372C162.819 31.3676 162.818 31.5829 162.389 31.7982C162.175 32.0138 161.959 32.2298 161.53 32.2298C161.101 32.2298 160.887 32.2292 160.673 31.7982C160.552 31.6767 160.432 31.5542 160.35 31.394V32.5751C160.767 32.4408 161.247 32.3374 161.744 32.3372C162.046 32.3372 162.414 32.335 162.792 32.4109C163.056 32.4639 163.31 32.5526 163.57 32.6824V21.775H162.14ZM160.35 22.3476C160.413 22.257 160.514 22.1768 160.673 22.0971C160.915 21.9753 161.023 21.8578 161.146 21.775H160.35V22.3476ZM162.572 15.4149C162.339 15.4611 162.026 15.5223 161.744 15.5223C161.552 15.5223 161.352 15.5187 161.146 15.5096C161.055 16.467 160.668 17.4181 160.222 18.2507C160.344 18.2278 160.463 18.1995 160.58 18.1602L160.729 18.1097H162.819C163.031 18.1097 163.263 18.1099 163.509 18.1202C163.449 17.9975 163.388 17.8765 163.333 17.7539C162.985 16.9796 162.719 16.1777 162.572 15.4149ZM154.77 12.5833C155.485 12.1682 156.251 11.89 157.065 11.7496C157.057 11.7087 157.049 11.6644 157.04 11.617C156.993 11.3803 156.914 11.0042 156.914 10.6717C156.914 10.5516 156.914 10.3965 156.92 10.2254C156.229 10.1359 155.513 9.86536 154.77 9.45062V12.5833ZM168.722 9.29273C168.186 9.61157 167.628 9.87387 167.058 10.0212C166.882 10.0665 166.703 10.0974 166.521 10.1201C166.55 10.2972 166.574 10.4909 166.574 10.6717C166.574 10.8288 166.572 10.9914 166.567 11.158C167.34 11.3398 168.059 11.6653 168.722 12.0907V9.29273ZM161.457 8.41061C161.375 8.41328 161.313 8.41702 161.268 8.42325L161.071 8.62325H160.811C160.791 8.64653 160.762 8.67661 160.727 8.72009C160.702 8.75144 160.665 8.79456 160.631 8.83588C160.595 8.87863 160.548 8.93381 160.494 8.98746C160.492 8.99002 160.486 8.99661 160.478 9.00641C160.466 9.02085 160.45 9.0419 160.432 9.06746C160.392 9.1223 160.349 9.18607 160.293 9.26957C160.246 9.34065 160.176 9.44483 160.094 9.55589C160.059 9.75209 160.01 9.907 159.977 10.0085C159.924 10.1682 159.92 10.1981 159.92 10.2401C159.92 10.3507 159.919 10.4447 159.922 10.5306C159.925 10.612 159.929 10.6729 159.935 10.718L160.134 10.918V11.1791C160.157 11.1992 160.186 11.2265 160.228 11.2612C160.259 11.2865 160.304 11.3228 160.346 11.358C160.388 11.394 160.441 11.4413 160.494 11.4949C160.494 11.4949 160.502 11.5005 160.515 11.5117C160.53 11.5234 160.549 11.5394 160.574 11.558C160.629 11.5981 160.694 11.6409 160.777 11.697C160.847 11.7436 160.949 11.812 161.058 11.8928C161.256 11.9278 161.411 11.9807 161.513 12.0149C161.672 12.0681 161.702 12.0737 161.744 12.0738C161.853 12.0738 161.946 12.0723 162.031 12.0696C162.115 12.0669 162.178 12.0634 162.224 12.057C162.228 12.0564 162.233 12.0536 162.236 12.0528C162.407 11.9026 162.599 11.7715 162.71 11.697C162.794 11.641 162.859 11.598 162.914 11.558C162.939 11.5393 162.96 11.5235 162.974 11.5117C162.985 11.5027 162.991 11.4966 162.993 11.4949C162.993 11.4949 163 11.4875 163.01 11.4759C163.022 11.4615 163.037 11.4408 163.056 11.4149L163.379 10.9433C163.383 10.9378 163.387 10.9319 163.391 10.9264C163.426 10.7303 163.477 10.5756 163.511 10.4738C163.564 10.313 163.57 10.2824 163.57 10.2401C163.57 10.1299 163.568 10.0374 163.565 9.95168C163.563 9.86657 163.557 9.80379 163.551 9.758C163.55 9.75171 163.547 9.74612 163.547 9.74115C163.488 9.67369 163.428 9.60694 163.379 9.53905L163.056 9.06746C163.037 9.04135 163.022 9.0209 163.01 9.00641C163.001 8.99504 162.995 8.98915 162.993 8.98746C162.993 8.98746 162.986 8.98043 162.974 8.97062C162.96 8.95879 162.939 8.94316 162.914 8.9243C162.859 8.88422 162.794 8.84145 162.71 8.78535C162.599 8.71088 162.41 8.57769 162.239 8.42746C162.234 8.42681 162.229 8.42603 162.224 8.42535C162.178 8.4189 162.115 8.41334 162.031 8.41061C161.946 8.40789 161.853 8.40851 161.744 8.40851C161.634 8.40851 161.542 8.40785 161.457 8.41061ZM159.675 2.80213C160.214 3.9785 160.53 5.00942 160.662 5.89269C160.666 5.91859 160.667 5.94482 160.671 5.97059C160.711 5.96261 160.755 5.95689 160.803 5.94743C161.038 5.90013 161.413 5.82131 161.744 5.82111C161.953 5.82111 162.268 5.8204 162.591 5.85269C162.62 5.85568 162.652 5.85948 162.683 5.86322C162.725 5.59309 162.78 5.32313 162.851 5.059C163.053 4.29823 163.368 3.52217 163.727 2.80213H159.675Z" fill="white"/>
</svg>
